G04 EAGLE Gerber RS-274X export*
G04 Layer: Top Silkscreen*
G04 Relay_4CH - 4-Channel Mains Relay Board Reference Design*
%FSLAX34Y34*%
%MOIN*%
%ADD10C,0.008*%
%ADD11C,0.006*%

G04 Board Outline*
D10*
X0Y0D02*
X47244Y0D01*
X47244Y23622D01*
X0Y23622D01*
X0Y0D01*

G04 Isolation Slot Outline (Keepout)*
D10*
X19685Y0D02*
X19685Y23622D01*
X20472Y23622D01*
X20472Y0D01*

G04 Component Outlines*
G04 MCU Header J1*
D11*
X1378Y16929D02*
X7559Y16929D01*
X7559Y18504D01*
X1378Y18504D01*
X1378Y16929D01*

G04 Optocouplers U1-U4*
D11*
X5315Y18307D02*
X7496Y18307D01*
X7496Y22488D01*
X5315Y22488D01*
X5315Y18307D01*

X5315Y15157D02*
X7496Y15157D01*
X7496Y19339D01*
X5315Y19339D01*
X5315Y15157D01*

X5315Y12008D02*
X7496Y12008D01*
X7496Y16189D01*
X5315Y16189D01*
X5315Y12008D01*

X5315Y8858D02*
X7496Y8858D01*
X7496Y13039D01*
X5315Y13039D01*
X5315Y8858D01*

G04 ULN2803A U5*
D11*
X11220Y13189D02*
X20402Y13189D01*
X20402Y17370D01*
X11220Y17370D01*
X11220Y13189D01*

G04 Relays K1-K4*
D10*
X22638Y17913D02*
X30512Y17913D01*
X30512Y23819D01*
X22638Y23819D01*
X22638Y17913D01*

X28543Y17913D02*
X36417Y17913D01*
X36417Y23819D01*
X28543Y23819D01*
X28543Y17913D01*

X34449Y17913D02*
X42323Y17913D01*
X42323Y23819D01*
X34449Y23819D01*
X34449Y17913D01*

X40354Y17913D02*
X48228Y17913D01*
X48228Y23819D01*
X40354Y23819D01*
X40354Y17913D01*

G04 DC-DC Converter PS1*
D11*
X21063Y12795D02*
X27244Y12795D01*
X27244Y14764D01*
X21063Y14764D01*
X21063Y12795D01*

G04 MOV RV1*
D10*
X26772Y1181D02*
X31299Y6299D01*

G04 Fuses F1-F4*
D11*
X30315Y2362D02*
X41339Y2362D01*
X41339Y5512D01*
X30315Y5512D01*
X30315Y2362D01*

X34449Y2362D02*
X45472Y2362D01*
X45472Y5512D01*
X34449Y5512D01*
X34449Y2362D01*

X38583Y2362D02*
X49606Y2362D01*
X49606Y5512D01*
X38583Y5512D01*
X38583Y2362D01*

X42717Y2362D02*
X53740Y2362D01*
X53740Y5512D01*
X42717Y5512D01*
X42717Y2362D01*

G04 Mains Input Terminal J2*
D10*
X22441Y787D02*
X26614Y787D01*
X26614Y3150D01*
X22441Y3150D01*
X22441Y787D01*

G04 Output Terminals J3-J6*
D10*
X26378Y20472D02*
X32677Y20472D01*
X32677Y22835D01*
X26378Y22835D01*
X26378Y20472D01*

X32283Y20472D02*
X38583Y20472D01*
X38583Y22835D01*
X32283Y22835D01*
X32283Y20472D01*

X38189Y20472D02*
X44488Y20472D01*
X44488Y22835D01*
X38189Y22835D01*
X38189Y20472D01*

X44094Y20472D02*
X50394Y20472D01*
X50394Y22835D01*
X44094Y22835D01*
X44094Y20472D01*

G04 Designators and Labels*
G04 Warning Text - DANGER MAINS VOLTAGE*
G04 Text rendered as line strokes (height ~2mm)*
D10*
G04 Letter D*
X27559Y787D02*
X27559Y1575D01*
X27953Y1575D01*
X28150Y1378D01*
X28150Y984D01*
X27953Y787D01*
X27559Y787D01*
G04 Letter A*
X28346Y787D02*
X28543Y1575D01*
X28740Y787D01*
X28445Y1181D02*
X28641Y1181D01*
G04 Letter N*
X28937Y787D02*
X28937Y1575D01*
X29331Y787D01*
X29331Y1575D01*
G04 Letter G*
X29528Y1378D02*
X29528Y984D01*
X29921Y787D01*
X29921Y1181D01*
X29724Y1181D01*
X29528Y984D01*
X29724Y1575D01*
X29528Y1378D01*
G04 Letter E*
X30118Y787D02*
X30118Y1575D01*
X30512Y1575D01*
X30118Y1181D02*
X30413Y1181D01*
X30118Y787D02*
X30512Y787D01*
G04 Letter R*
X30709Y787D02*
X30709Y1575D01*
X31102Y1575D01*
X31102Y1181D01*
X30709Y1181D01*
X31102Y787D01*
G04 Dash -*
X31496Y1181D02*
X31890Y1181D01*
G04 Letter M*
X32087Y787D02*
X32087Y1575D01*
X32283Y1181D01*
X32480Y1575D01*
X32480Y787D01*
G04 Letter A*
X32677Y787D02*
X32874Y1575D01*
X33071Y787D01*
X32776Y1181D02*
X32972Y1181D01*
G04 Letter I*
X33268Y787D02*
X33268Y1575D01*
G04 Letter N*
X33465Y787D02*
X33465Y1575D01*
X33858Y787D01*
X33858Y1575D01*
G04 Letter S*
X34055Y1378D02*
X34449Y1575D01*
X34055Y1181D01*
X34449Y984D01*
X34055Y787D01*
G04 Space then V*
X34843Y1575D02*
X35039Y787D01*
X35236Y1575D01*
G04 Letter O*
X35433Y984D02*
X35433Y1378D01*
X35630Y1575D01*
X35827Y1378D01*
X35827Y984D01*
X35630Y787D01*
X35433Y984D01*
G04 Letter L*
X36024Y1575D02*
X36024Y787D01*
X36417Y787D01*
G04 Letter T*
X36614Y1575D02*
X37008Y1575D01*
X36811Y1575D02*
X36811Y787D01*
G04 Letter A*
X37205Y787D02*
X37402Y1575D01*
X37598Y787D01*
X37303Y1181D02*
X37500Y1181D01*
G04 Letter G*
X37795Y1378D02*
X37795Y984D01*
X38189Y787D01*
X38189Y1181D01*
X37992Y1181D01*
X37795Y984D01*
X37992Y1575D01*
X37795Y1378D01*
G04 Letter E*
X38386Y787D02*
X38386Y1575D01*
X38780Y1575D01*
X38386Y1181D02*
X38680Y1181D01*
X38386Y787D02*
X38780Y787D01*

G04 L and N labels for mains input*
D11*
X22638Y3543D02*
X22638Y4134D01*
X23228Y4134D01*

X25228Y3543D02*
X25228Y4134D01*
X25819Y3543D01*
X25819Y4134D01*

G04 Channel labels CH1-CH4*
D11*
X27165Y22047D02*
X27559Y22047D02*
G04 CH1*

X33071Y22047D02*
X33465Y22047D02*
G04 CH2*

X38976Y22047D02*
X39370Y22047D02*
G04 CH3*

X44882Y22047D02*
X45276Y22047D02*
G04 CH4*

M02*
