M48
; DRILL file {relay_4ch} date 2024
; FORMAT={-:-/ absolute / inch / decimal}
; #@! TF.CreationDate,2024-01-01T00:00:00+00:00
; #@! TF.GenerationSoftware,Altium Designer,Reference
; #@! TF.FileFunction,Plated,1,2,PTH
FMAT,2
INCH
; Plated Through Hole Drill Sizes
T1C0.031 ; 0.8mm - DIP IC pins
T2C0.039 ; 1.0mm - Headers, test points
T3C0.047 ; 1.2mm - Relay pins
T4C0.051 ; 1.3mm - Fuse holders
T5C0.055 ; 1.4mm - Terminal blocks
%
; Tool 1 - 0.8mm - DIP packages (Optocouplers, ULN2803A)
T1
X5906Y18898
X6906Y18898
X6906Y21898
X5906Y21898
X5906Y15748
X6906Y15748
X6906Y18748
X5906Y18748
X5906Y12598
X6906Y12598
X6906Y15598
X5906Y15598
X5906Y9449
X6906Y9449
X6906Y12449
X5906Y12449
X11811Y13780
X12811Y13780
X13811Y13780
X14811Y13780
X15811Y13780
X16811Y13780
X17811Y13780
X18811Y13780
X19811Y13780
X19811Y16780
X18811Y16780
X17811Y16780
X16811Y16780
X15811Y16780
X14811Y16780
X13811Y16780
X12811Y16780
X11811Y16780
X13780Y13780
X14780Y13780
X19685Y11811
X20685Y11811
; Tool 2 - 1.0mm - Headers, DC-DC, MOV, LEDs, Test Points
T2
X1969Y17717
X2969Y17717
X3969Y17717
X4969Y17717
X5969Y17717
X6969Y17717
X21654Y13780
X22654Y13780
X25654Y13780
X26654Y13780
X27559Y3937
X30512Y3937
X23622Y11024
X25622Y11024
X29528Y11024
X31528Y11024
X35433Y11024
X37433Y11024
X41339Y11024
X43339Y11024
X3150Y21654
X4724Y21654
X21654Y11811
X23622Y16535
X29528Y16535
X35433Y16535
X41339Y16535
; Tool 3 - 1.2mm - Relays
T3
X23622Y18898
X29528Y18898
X23622Y22835
X26575Y22835
X29528Y22835
X29528Y18898
X35433Y18898
X29528Y22835
X32480Y22835
X35433Y22835
X35433Y18898
X41339Y18898
X35433Y22835
X38386Y22835
X41339Y22835
X41339Y18898
X47244Y18898
X41339Y22835
X44291Y22835
X47244Y22835
; Tool 4 - 1.3mm - Fuse holders
T4
X31496Y3937
X40158Y3937
X35433Y3937
X44094Y3937
X39370Y3937
X48031Y3937
X43307Y3937
X51968Y3937
; Tool 5 - 1.4mm - Terminal blocks
T5
X23622Y1969
X25622Y1969
X27559Y21654
X29559Y21654
X31559Y21654
X33465Y21654
X35465Y21654
X37465Y21654
X39370Y21654
X41370Y21654
X43370Y21654
X45276Y21654
X47276Y21654
X49276Y21654
M30
