M48
; Relay 4-Channel Board - Excellon Drill File
; Generated for relay_4ch Altium Project
; Units: Inches
; Board Size: 120mm x 60mm (4.724" x 2.362")
;
INCH,TZ
; Tool definitions (diameter in inches)
T01C0.0315 ; 0.8mm - IC pads, small TH
T02C0.0394 ; 1.0mm - Headers, test points
T03C0.0472 ; 1.2mm - Relay pads, fuses
T04C0.0512 ; 1.3mm - Terminal blocks
T05C0.0157 ; 0.4mm - Vias
T06C0.1260 ; 3.2mm - M3 mounting holes
T07C0.0787 ; 2.0mm - Slot routing (for milled slot)
%

; Mounting Holes - M3 (3.2mm)
T06
X01181Y01181
X46063Y01181
X01181Y22441
X46063Y22441

; Vias (0.4mm)
T05
X03937Y03937
X05906Y03937
X07874Y03937
X03937Y07874
X05906Y07874
X07874Y07874
X03937Y11811
X05906Y11811
X07874Y11811
X03937Y15748
X05906Y15748
X07874Y15748
X23622Y03937
X27559Y03937
X31496Y03937
X35433Y03937
X39370Y03937
X43307Y03937
X23622Y11811
X27559Y11811
X31496Y11811
X35433Y11811
X39370Y11811
X43307Y11811
X23622Y19685
X27559Y19685
X31496Y19685
X35433Y19685
X39370Y19685
X43307Y19685

; Small TH pads - ICs (0.8mm)
T01
; Optocouplers U1-U4
X09843Y18898
X09843Y17874
X14843Y17874
X14843Y18898
X09843Y14961
X09843Y13937
X14843Y13937
X14843Y14961
X09843Y11024
X09843Y10000
X14843Y10000
X14843Y11024
X09843Y07087
X09843Y06063
X14843Y06063
X14843Y07087
; ULN2803A U5
X16535Y08858
X17559Y08858
X18583Y08858
X19606Y08858
X20630Y08858
X21654Y08858
X22677Y08858
X23701Y08858
X24724Y08858
X24724Y14835
X23701Y14835
X22677Y14835
X21654Y14835
X20630Y14835
X19606Y14835
X18583Y14835
X17559Y14835
X16535Y14835
; DC-DC U6
X16535Y19685
X17559Y19685
X18583Y19685
X19606Y19685

; Header and Test Point holes (1.0mm)
T02
; MCU Header J1
X03937Y11811
X03937Y10315
X03937Y08819
X03937Y07323
X03937Y05827
X03937Y04331
; Test Points TP1-TP7
X01969Y21654
X01969Y19685
X16535Y21654
X25591Y16535
X31496Y16535
X37402Y16535
X43307Y16535

; Relay and Fuse Holder holes (1.2mm)
T03
; Relay K1 (coil and contact pads)
X25591Y08189
X25591Y15591
X22598Y18583
X25591Y18583
X28583Y18583
; Relay K2
X31496Y08189
X31496Y15591
X28504Y18583
X31496Y18583
X34488Y18583
; Relay K3
X37402Y08189
X37402Y15591
X34409Y18583
X37402Y18583
X40394Y18583
; Relay K4
X43307Y08189
X43307Y15591
X40315Y18583
X43307Y18583
X46299Y18583
; Fuse Holders F1-F4
X21654Y14961
X21654Y10945
X21654Y07087
X21654Y03150

; Terminal Block holes (1.3mm)
T04
; Mains Input J2
X22835Y22047
X24835Y22047
; Output Terminals J3-J6
X23583Y01575
X25591Y01575
X27598Y01575
X29488Y01575
X31496Y01575
X33504Y01575
X35402Y01575
X37402Y01575
X39409Y01575
X41315Y01575
X43307Y01575
X45315Y01575
; MOV RV1
X22835Y18898
X24835Y18898

; Slot Routing (isolation barrier)
; This is a routed slot, defined as a series of holes
; Slot: X=48mm, Y=5mm to Y=55mm, Width=2mm
T07
; Route from Y=5mm to Y=55mm at X=48mm
; (Slot is defined in mechanical layer, drilled/routed in fabrication)
; Note: Actual slot routing would be G85 command or separate file
; Represented here as series of overlapping holes for illustration

M30
