G04 Relay 4-Channel Board - Top Copper Layer*
G04 Generated for relay_4ch Altium Project*
G04 RS-274X Format*
%FSLAX35Y35*%
%MOIN*%
%ADD10C,0.010*%
%ADD11C,0.039*%
%ADD12C,0.059*%
%ADD13C,0.079*%
%ADD14C,0.157*%
%ADD15R,0.059X0.059*%
%ADD16R,0.079X0.079*%
%ADD17O,0.067X0.051*%
%ADD18C,0.098*%
%ADD19R,0.039X0.051*%
%ADD20C,0.071*%
%ADD21R,0.098X0.118*%

G04 Board Outline Reference: 120mm x 60mm (4.724" x 2.362")*
G04 Origin at lower-left corner*

G04 Start of Top Copper Data*
G75*
D10*

G04 Component Pads and Traces*
G04 MCU Header J1 Pads*
D15*
X039370Y118110D03*
X039370Y103150D03*
X039370Y088190D03*
X039370Y073230D03*
X039370Y058270D03*
X039370Y043310D03*

G04 Optocoupler U1-U4 Pads (DIP-4)*
D12*
G04 U1*
X098425Y188976D03*
X098425Y178740D03*
X148425Y178740D03*
X148425Y188976D03*

G04 U2*
X098425Y149606D03*
X098425Y139370D03*
X148425Y139370D03*
X148425Y149606D03*

G04 U3*
X098425Y110236D03*
X098425Y100000D03*
X148425Y100000D03*
X148425Y110236D03*

G04 U4*
X098425Y070866D03*
X098425Y060630D03*
X148425Y060630D03*
X148425Y070866D03*

G04 ULN2803A U5 Pads (DIP-18)*
D12*
G04 U5 - DIP18 at 42mm, 30mm*
X165354Y088583D03*
X175590Y088583D03*
X185827Y088583D03*
X196063Y088583D03*
X206299Y088583D03*
X216535Y088583D03*
X226772Y088583D03*
X237008Y088583D03*
X247244Y088583D03*
X247244Y148346D03*
X237008Y148346D03*
X226772Y148346D03*
X216535Y148346D03*
X206299Y148346D03*
X196063Y148346D03*
X185827Y148346D03*
X175590Y148346D03*
X165354Y148346D03*

G04 DC-DC NME0505SC U6 Pads*
D12*
X165354Y196850D03*
X175590Y196850D03*
X185827Y196850D03*
X196063Y196850D03*

G04 Relay K1-K4 Pads (5-pin each)*
D14*
G04 K1 at 65mm*
X255906Y081890D03*
X255906Y155905D03*
X225984Y185827D03*
X255906Y185827D03*
X285827Y185827D03*

G04 K2 at 80mm*
X314961Y081890D03*
X314961Y155905D03*
X285039Y185827D03*
X314961Y185827D03*
X344882Y185827D03*

G04 K3 at 95mm*
X374016Y081890D03*
X374016Y155905D03*
X344094Y185827D03*
X374016Y185827D03*
X403937Y185827D03*

G04 K4 at 110mm*
X433071Y081890D03*
X433071Y155905D03*
X403150Y185827D03*
X433071Y185827D03*
X462992Y185827D03*

G04 Terminal J2 (2-pin) Mains Input*
D14*
X228346Y220472D03*
X248346Y220472D03*

G04 Terminals J3-J6 (3-pin each) Outputs*
D14*
G04 J3*
X235827Y015748D03*
X255906Y015748D03*
X275984Y015748D03*

G04 J4*
X294882Y015748D03*
X314961Y015748D03*
X335039Y015748D03*

G04 J5*
X354016Y015748D03*
X374016Y015748D03*
X394094Y015748D03*

G04 J6*
X413150Y015748D03*
X433071Y015748D03*
X453150Y015748D03*

G04 MOV RV1*
D14*
X228346Y188976D03*
X248346Y188976D03*

G04 Fuses F1-F4*
D14*
X216535Y149606D03*
X216535Y109449D03*
X216535Y070866D03*
X216535Y031496D03*

G04 SMD Resistors and Capacitors (0805)*
D19*
G04 R1-R4 Input Resistors*
X070866Y188976D03*
X070866Y149606D03*
X070866Y110236D03*
X070866Y070866D03*

G04 R5-R8 Pull-up Resistors*
X125984Y188976D03*
X125984Y149606D03*
X125984Y110236D03*
X125984Y070866D03*

G04 R13-R16 LED Resistors*
X255906Y204724D03*
X314961Y204724D03*
X374016Y204724D03*
X433071Y204724D03*

G04 LEDs D1-D4*
D19*
X255906Y188976D03*
X314961Y188976D03*
X374016Y188976D03*
X433071Y188976D03*

G04 Snubber Capacitors C1-C4 (X2)*
D18*
X255906Y059055D03*
X314961Y059055D03*
X374016Y059055D03*
X433071Y059055D03*

G04 Snubber Resistors R9-R12*
D21*
X267717Y059055D03*
X326772Y059055D03*
X385827Y059055D03*
X444882Y059055D03*

G04 Bypass Capacitors C5, C6*
D19*
X039370Y196850D03*
X165354Y165354D03*

G04 Test Points TP1-TP7*
D20*
X019685Y216535D03*
X019685Y196850D03*
X165354Y216535D03*
X255906Y165354D03*
X314961Y165354D03*
X374016Y165354D03*
X433071Y165354D03*

G04 Solder Jumper SJ1*
D19*
X165354Y039370D03*

G04 Power Traces - VCC_3V3 (1mm width)*
D11*
G01*
X039370Y118110D02*
X039370Y196850D01*
X019685Y216535D01*

G04 Power Traces - VCOIL_5V_ISO (1mm width)*
X196063Y196850D02*
X255906Y196850D01*
X255906Y165354D01*

G04 Mains Traces (4mm width - shown as representative)*
D14*
G01*
X228346Y220472D02*
X228346Y188976D01*
X216535Y149606D01*

M02*
