G04 Relay 4-Channel Board - Bottom Copper Layer*
G04 Generated for relay_4ch Altium Project*
G04 RS-274X Format*
%FSLAX35Y35*%
%MOIN*%
%ADD10C,0.010*%
%ADD11C,0.039*%
%ADD12C,0.059*%
%ADD13C,0.079*%
%ADD14C,0.157*%
%ADD15R,0.059X0.059*%
%ADD16R,0.079X0.079*%
%ADD17O,0.067X0.051*%
%ADD18C,0.098*%

G04 Board Outline Reference: 120mm x 60mm (4.724" x 2.362")*
G04 Ground Pour with Isolation Slot at X=48mm*

G04 GND Pour Region (Logic Area: 0-45mm)*
G36*
X000000Y000000D02*
G01*
X000000Y236220D01*
X177165Y236220D01*
X177165Y000000D01*
X000000Y000000D01*
G37*

G04 GND_ISO Pour Region (Mains Area: 50-120mm)*
G36*
X196850Y000000D02*
G01*
X196850Y236220D01*
X472441Y236220D01*
X472441Y000000D01*
X196850Y000000D01*
G37*

G04 Thermal Relief Patterns for Through-Hole Components*
G04 Pattern shown as outline - actual thermal reliefs generated by CAM*

G04 Via Connections to Ground Pours*
D12*
G04 GND Vias in Logic Area*
X039370Y039370D03*
X059055Y039370D03*
X078740Y039370D03*
X039370Y078740D03*
X059055Y078740D03*
X078740Y078740D03*
X039370Y118110D03*
X059055Y118110D03*
X078740Y118110D03*
X039370Y157480D03*
X059055Y157480D03*
X078740Y157480D03*

G04 GND_ISO Vias in Mains Area*
X236220Y039370D03*
X275590Y039370D03*
X314961Y039370D03*
X354331Y039370D03*
X393701Y039370D03*
X433071Y039370D03*
X236220Y118110D03*
X275590Y118110D03*
X314961Y118110D03*
X354331Y118110D03*
X393701Y118110D03*
X433071Y118110D03*
X236220Y196850D03*
X275590Y196850D03*
X314961Y196850D03*
X354331Y196850D03*
X393701Y196850D03*
X433071Y196850D03*

G04 Through-Hole Component Anti-Pads*
G04 (Areas where ground pour is removed around pads)*

G04 End of Bottom Copper Data*
M02*
