G04 Relay 4-Channel Board - Top Solder Mask*
G04 Generated for relay_4ch Altium Project*
G04 RS-274X Format*
%FSLAX35Y35*%
%MOIN*%
%ADD10C,0.010*%
%ADD11C,0.067*%
%ADD12C,0.087*%
%ADD13C,0.185*%
%ADD14R,0.067X0.067*%
%ADD15R,0.047X0.059*%
%ADD16C,0.106*%
%ADD17R,0.106X0.126*%
%ADD18C,0.079*%

G04 Board Size: 120mm x 60mm*
G04 Solder mask openings (slightly larger than pads)*

G04 MCU Header J1 Mask Openings*
D14*
X039370Y118110D03*
X039370Y103150D03*
X039370Y088190D03*
X039370Y073230D03*
X039370Y058270D03*
X039370Y043310D03*

G04 Optocoupler U1-U4 Mask Openings*
D12*
X098425Y188976D03*
X098425Y178740D03*
X148425Y178740D03*
X148425Y188976D03*
X098425Y149606D03*
X098425Y139370D03*
X148425Y139370D03*
X148425Y149606D03*
X098425Y110236D03*
X098425Y100000D03*
X148425Y100000D03*
X148425Y110236D03*
X098425Y070866D03*
X098425Y060630D03*
X148425Y060630D03*
X148425Y070866D03*

G04 ULN2803A U5 Mask Openings*
D12*
X165354Y088583D03*
X175590Y088583D03*
X185827Y088583D03*
X196063Y088583D03*
X206299Y088583D03*
X216535Y088583D03*
X226772Y088583D03*
X237008Y088583D03*
X247244Y088583D03*
X247244Y148346D03*
X237008Y148346D03*
X226772Y148346D03*
X216535Y148346D03*
X206299Y148346D03*
X196063Y148346D03*
X185827Y148346D03*
X175590Y148346D03*
X165354Y148346D03*

G04 DC-DC U6 Mask Openings*
D12*
X165354Y196850D03*
X175590Y196850D03*
X185827Y196850D03*
X196063Y196850D03*

G04 Relay K1-K4 Mask Openings*
D13*
X255906Y081890D03*
X255906Y155905D03*
X225984Y185827D03*
X255906Y185827D03*
X285827Y185827D03*
X314961Y081890D03*
X314961Y155905D03*
X285039Y185827D03*
X314961Y185827D03*
X344882Y185827D03*
X374016Y081890D03*
X374016Y155905D03*
X344094Y185827D03*
X374016Y185827D03*
X403937Y185827D03*
X433071Y081890D03*
X433071Y155905D03*
X403150Y185827D03*
X433071Y185827D03*
X462992Y185827D03*

G04 Terminal Mask Openings*
D13*
X228346Y220472D03*
X248346Y220472D03*
X235827Y015748D03*
X255906Y015748D03*
X275984Y015748D03*
X294882Y015748D03*
X314961Y015748D03*
X335039Y015748D03*
X354016Y015748D03*
X374016Y015748D03*
X394094Y015748D03*
X413150Y015748D03*
X433071Y015748D03*
X453150Y015748D03*

G04 SMD Component Mask Openings*
D15*
X070866Y188976D03*
X070866Y149606D03*
X070866Y110236D03*
X070866Y070866D03*
X125984Y188976D03*
X125984Y149606D03*
X125984Y110236D03*
X125984Y070866D03*
X255906Y204724D03*
X314961Y204724D03*
X374016Y204724D03*
X433071Y204724D03*
X255906Y188976D03*
X314961Y188976D03*
X374016Y188976D03*
X433071Y188976D03*

G04 Test Point Mask Openings*
D18*
X019685Y216535D03*
X019685Y196850D03*
X165354Y216535D03*
X255906Y165354D03*
X314961Y165354D03*
X374016Y165354D03*
X433071Y165354D03*

M02*
