G04 Relay 4-Channel Board - Top Silkscreen*
G04 Generated for relay_4ch Altium Project*
G04 RS-274X Format*
%FSLAX35Y35*%
%MOIN*%
%ADD10C,0.008*%
%ADD11C,0.012*%

G04 Board Size: 120mm x 60mm*
G04 Silkscreen layer with component outlines and text*

D10*
G04 Board Outline*
G01*
X000000Y000000D02*
X472441Y000000D01*
X472441Y236220D01*
X000000Y236220D01*
X000000Y000000D01*

G04 Isolation Slot Outline*
X188976Y019685D02*
X188976Y216535D01*

G04 Component Outlines*
G04 MCU Header J1 Outline*
X029527Y133070D02*
X049212Y133070D01*
X049212Y028346D01*
X029527Y028346D01*
X029527Y133070D01*

G04 Optocoupler Outlines U1-U4*
G04 U1*
X078740Y203936D02*
X168110Y203936D01*
X168110Y163780D01*
X078740Y163780D01*
X078740Y203936D01*

G04 U2*
X078740Y164566D02*
X168110Y164566D01*
X168110Y124410D01*
X078740Y124410D01*
X078740Y164566D01*

G04 U3*
X078740Y125197D02*
X168110Y125197D01*
X168110Y085040D01*
X078740Y085040D01*
X078740Y125197D01*

G04 U4*
X078740Y085827D02*
X168110Y085827D01*
X168110Y045670D01*
X078740Y045670D01*
X078740Y085827D01*

G04 ULN2803A U5 Outline*
X145669Y163346D02*
X266929Y163346D01*
X266929Y073583D01*
X145669Y073583D01*
X145669Y163346D01*

G04 DC-DC U6 Outline*
X155512Y216535D02*
X205905Y216535D01*
X205905Y177165D01*
X155512Y177165D01*
X155512Y216535D01*

G04 Relay K1-K4 Outlines*
G04 K1*
X225984Y043307D02*
X285827Y043307D01*
X285827Y208661D01*
X225984Y208661D01*
X225984Y043307D01*

G04 K2*
X285039Y043307D02*
X344882Y043307D01*
X344882Y208661D01*
X285039Y208661D01*
X285039Y043307D01*

G04 K3*
X344094Y043307D02*
X403937Y043307D01*
X403937Y208661D01*
X344094Y208661D01*
X344094Y043307D01*

G04 K4*
X403150Y043307D02*
X462992Y043307D01*
X462992Y208661D01*
X403150Y208661D01*
X403150Y043307D01*

G04 Terminal Outlines*
G04 J2 Mains Input*
X208346Y230315D02*
X268346Y230315D01*
X268346Y210630D01*
X208346Y210630D01*
X208346Y230315D01*

G04 J3-J6 Output Terminals*
X220827Y025591D02*
X290984Y025591D01*
X290984Y005906D01*
X220827Y005906D01*
X220827Y025591D01*

X279882Y025591D02*
X350039Y025591D01*
X350039Y005906D01*
X279882Y005906D01*
X279882Y025591D01*

X339016Y025591D02*
X409094Y025591D01*
X409094Y005906D01*
X339016Y005906D01*
X339016Y025591D01*

X398150Y025591D02*
X468150Y025591D01*
X468150Y005906D01*
X398150Y005906D01*
X398150Y025591D01*

G04 Warning Text - DANGER*
D11*
G04 (Text would be rendered as strokes - simplified here)*

G04 Reference Designators*
G04 J1*
X029527Y137008D02*
X029527Y137008D01*

G04 End of Silkscreen Data*
M02*
